SPORT: Scrum V - Six Nations Special
On: BBC 2 Wales 
Date: Sunday 17th March 2013 
Time: 19:00 to 20:00 

Jason Mohammad presents the Scrum V Six Nations Special with all the reaction and analysis from Wales's final Six Nations match against England. Special guests include Wales legends Gareth Edwards, Shane Williams and Jonathan Davies.

[608Mb, 59mins, 720x416[16:9], 1292Kbps, x264/mp4; Audio: AAC-LC, 128Kbps]

General
Complete name: 2013.03.17.Scrum.V.pdtv.x264.mp4
Format : MPEG-4
Format profile : Base Media
Codec ID : isom
File size: 608 MiB
Duration : 59mn 38s
Overall bit rate mode: Variable
Overall bit rate : 1 425 Kbps

Video
ID : 1
Format : AVC
Format/Info: Advanced Video Codec
Format profile : High@L3.1
Format settings, CABAC : Yes
Format settings, ReFrames: 5 frames
Codec ID : avc1
Codec ID/Info: Advanced Video Coding
Duration : 59mn 38s
Bit rate : 1 292 Kbps
Maximum bit rate : 5 457 Kbps
Width: 720 pixels
Height : 416 pixels
Display aspect ratio : 1.731
Frame rate mode: Constant
Frame rate : 25.000 fps
Color space: YUV
Chroma subsampling : 4:2:0
Bit depth: 8 bits
Scan type: Progressive
Bits/(Pixel*Frame) : 0.173
Stream size: 551 MiB (91%)
Writing library: x264 core 130 r2273 b3065e6

Audio
ID : 2
Format : AAC
Format/Info: Advanced Audio Codec
Format profile : LC
Codec ID : 40
Duration : 59mn 38s
Bit rate mode: Variable
Bit rate : 128 Kbps
Maximum bit rate : 142 Kbps
Channel(s) : 2 channels
Channel positions: Front: L R
Sampling rate: 48.0 KHz
Compression mode : Lossy
Stream size: 54.6 MiB (9%)